<?xml version="1.0" standalone="no"?><!DOCTYPE svg PUBLIC "-//W3C//DTD SVG 1.1//EN" "http://www.w3.org/Graphics/SVG/1.1/DTD/svg11.dtd"><svg t="1739619430305" class="icon" viewBox="0 0 1024 1024" version="1.1" xmlns="http://www.w3.org/2000/svg" p-id="6657" xmlns:xlink="http://www.w3.org/1999/xlink" width="200" height="200"><path d="M256 85.333333h341.333333v85.333334H256V85.333333zM170.666667 256V170.666667h85.333333v85.333333H170.666667z m0 341.333333H85.333333V256h85.333334v341.333333z m85.333333 85.333334H170.666667v-85.333334h85.333333v85.333334z m341.333333 0v85.333333H256v-85.333333h341.333333z m85.333334-85.333334h-85.333334v85.333334h85.333334v85.333333h85.333333v85.333333h85.333333v85.333334h85.333334v-85.333334h-85.333334v-85.333333h-85.333333v-85.333333h-85.333333v-85.333334z m0-341.333333h85.333333v341.333333h-85.333333V256z m0 0V170.666667h-85.333334v85.333333h85.333334z" p-id="6658"></path></svg>