<?xml version="1.0" standalone="no"?><!DOCTYPE svg PUBLIC "-//W3C//DTD SVG 1.1//EN" "http://www.w3.org/Graphics/SVG/1.1/DTD/svg11.dtd"><svg t="1739619883437" class="icon" viewBox="0 0 1024 1024" version="1.1" xmlns="http://www.w3.org/2000/svg" p-id="6981" xmlns:xlink="http://www.w3.org/1999/xlink" width="200" height="200"><path d="M469.333333 85.333333H213.333333v85.333334H128v256h85.333333v85.333333h256v-85.333333H213.333333V170.666667h256V85.333333z m0 85.333334h85.333334v256h-85.333334V170.666667zM0 682.666667h85.333333v170.666666h512v85.333334H0v-256z m85.333333 0h512v-85.333334H85.333333v85.333334z m597.333334 0h-85.333334v256h85.333334v-256zM640 85.333333h170.666667v85.333334h-170.666667V85.333333z m170.666667 341.333334h-170.666667v85.333333h170.666667v-85.333333z m0-256h85.333333v256h-85.333333V170.666667z m213.333333 512h-85.333333v170.666666h-170.666667v85.333334h256v-256z m-256-85.333334h170.666667v85.333334h-170.666667v-85.333334z" p-id="6982"></path></svg>