<?xml version="1.0" standalone="no"?><!DOCTYPE svg PUBLIC "-//W3C//DTD SVG 1.1//EN" "http://www.w3.org/Graphics/SVG/1.1/DTD/svg11.dtd"><svg t="1739477830792" class="icon" viewBox="0 0 1024 1024" version="1.1" xmlns="http://www.w3.org/2000/svg" p-id="8348" xmlns:xlink="http://www.w3.org/1999/xlink" width="200" height="200"><path d="M512 42.666667h85.333333v341.333333h341.333334v170.666667h-85.333334v-85.333334h-341.333333V213.333333h-85.333333V128h85.333333V42.666667zM341.333333 298.666667V213.333333h85.333334v85.333334H341.333333zM256 384V298.666667h85.333333v85.333333H256z m-85.333333 85.333333V384h85.333333v85.333333H170.666667z m426.666666 341.333334v85.333333h-85.333333v85.333333h-85.333333v-341.333333H85.333333v-170.666667h85.333334v85.333334h341.333333v256h85.333333z m85.333334-85.333334v85.333334h-85.333334v-85.333334h85.333334z m85.333333-85.333333v85.333333h-85.333333v-85.333333h85.333333z m0 0h85.333333v-85.333333h-85.333333v85.333333z" p-id="8349"></path></svg>